<svg width="189" height="21" viewBox="0 0 189 21" fill="none" xmlns="http://www.w3.org/2000/svg">
<path fill-rule="evenodd" clip-rule="evenodd" d="M51.1812 2.28849V8.27809C49.799 6.99852 47.9025 6.2659 45.8314 6.43032C42.4025 6.70435 39.6447 9.49055 39.4039 12.9165C39.2493 15.1424 40.207 17.2642 41.9231 18.6824C43.367 19.8759 45.2298 20.5 47.0994 20.5C48.9689 20.5 50.6223 19.9105 51.9463 18.9363C52.167 19.556 52.7573 19.9978 53.4529 19.9978H54.9046V0.5H52.9701C51.9821 0.5 51.1812 1.29973 51.1812 2.28849ZM47.1912 17.5505C45.0764 17.5505 43.3636 15.7005 43.3636 13.4165C43.3636 11.1325 45.0764 9.28251 47.1912 9.28251C49.3061 9.28251 51.0188 11.1325 51.0188 13.4165C51.0188 15.7005 49.3061 17.5505 47.1912 17.5505ZM35.9224 6.63724C34.9826 6.63724 34.2142 7.35979 34.1414 8.27697C32.7591 6.99516 30.8627 6.26254 28.7938 6.42696C25.365 6.70099 22.6049 9.48719 22.3663 12.9132C22.2117 15.139 23.1694 17.2608 24.8855 18.6791C26.3294 19.8736 28.1922 20.4966 30.0618 20.4966C31.9313 20.4966 33.5847 19.9061 34.9087 18.933C35.1294 19.5526 35.7197 19.9944 36.4153 19.9944H37.857V6.63724H35.9224ZM30.1503 17.5516C28.0354 17.5516 26.3227 15.7016 26.3227 13.4176C26.3227 11.1336 28.0354 9.28362 30.1503 9.28362C32.2651 9.28362 33.9778 11.1336 33.9778 13.4176C33.9778 15.7016 32.2651 17.5516 30.1503 17.5516ZM64.4081 9.778V8.42797C64.4081 7.44144 65.209 6.64171 66.1969 6.64171H75.8751V8.57785L69.3961 16.8704H75.8751V20.0067H63.988V18.0863L70.4793 9.778H64.4081ZM59.7269 0.606252C58.4735 0.606252 57.4575 1.62186 57.4575 2.87234C57.4575 4.12283 58.4746 5.13844 59.7269 5.13844C60.9793 5.13844 61.9964 4.12283 61.9964 2.87234C61.9964 1.62186 60.9793 0.606252 59.7269 0.606252ZM16.0744 14.9623L18.7784 6.64171H22.569L18.1186 20.0023H14.3146L11.3686 11.43L8.42256 20.0023H4.61738L0.166992 6.64171H3.95873L6.66279 14.9623L8.986 7.87207C9.22347 7.13721 9.91125 6.64171 10.6842 6.64171H13.3479L16.0744 14.9623ZM57.8943 8.42797V20.0056H61.62V6.64171H59.6832C58.6953 6.64171 57.8943 7.44144 57.8943 8.42797ZM90.4786 11.0274H92.0188V5.50982H94.1483V20.0012H92.0188V12.8752H90.4786V17.1948H84.1957V6.63727H90.4786V11.0274ZM86.324 15.4153H88.3671V8.43359H86.324V15.4153ZM95.2561 20.0034V20.0012V5.50982H97.4191V20.0034H95.2561ZM103.591 6.36095C101.185 6.36095 99.4029 8.53868 99.4029 12.0284C99.4029 15.5182 101.185 17.7306 103.591 17.7306C105.997 17.7306 107.779 15.5372 107.779 12.0284C107.779 8.51967 105.996 6.36095 103.591 6.36095ZM103.591 15.6591C102.414 15.6591 101.601 14.3974 101.601 12.0295C101.601 9.66166 102.414 8.41788 103.591 8.41788C104.768 8.41788 105.582 9.66166 105.582 12.0295C105.582 14.3974 104.768 15.6591 103.591 15.6591ZM109.337 20.0034V20.0012V5.50982H111.622V20.0034H109.337ZM124.646 10.5778H122.195V12.3909H124.646V20.0012H126.931V5.50982H124.646V10.5778ZM119.696 8.45145H114.104L114.103 8.45369V6.63948H121.963C121.963 11.2857 120.804 15.2296 115.79 18.1757C115.646 18.2596 115.5 18.3435 115.35 18.4274L114.539 17.3011L114.106 16.6993C114.254 16.6165 114.398 16.5327 114.539 16.451C114.541 16.451 114.546 16.4465 114.546 16.4465C116.569 15.252 117.845 13.9377 118.658 12.392H114.106V10.5777H119.35C119.505 9.90327 119.625 9.21092 119.696 8.45145ZM156.883 11.4725H148.473V10.5441H156.718V8.76796H148.473V7.88881H156.718V6.08019H146.138V13.2655H156.883V11.4725ZM147.546 16.2407H144.433V14.3684H158.323V16.2407H155.261V20.0012H152.843V16.2407H149.947V20.0012H147.546V16.2407ZM141.7 14.6883C138.985 14.1918 137.115 12.8008 136.138 10.9926C135.153 12.784 133.274 14.1839 130.576 14.6883L129.565 12.7835C133.173 12.175 134.846 9.39215 134.863 7.37548V6.35093H137.412V7.37548C137.395 9.42347 139.051 12.1918 142.743 12.7835L141.7 14.6883ZM129.209 17.0617H143.099V18.9341H129.209V17.0617ZM182.708 16.9789V14.5305C185.385 14.1838 187.362 12.5944 187.362 10.2981C187.362 7.73784 184.813 6.02541 181.584 6.02541C178.356 6.02541 175.839 7.73784 175.839 10.2981C175.839 12.5933 177.801 14.1816 180.46 14.5305V16.9789H174.7V18.933H188.5V16.9789H182.708ZM178.158 10.2981C178.158 8.79371 179.582 7.88213 181.584 7.89779C183.572 7.88213 184.995 8.79371 184.995 10.2981C184.995 11.8025 183.572 12.7141 181.584 12.7141C179.597 12.7141 178.158 11.8506 178.158 10.2981ZM162.682 8.42795V15.5495V15.5506C164.555 15.5349 166.515 15.4801 168.182 15.2486L168.389 17.074C166.377 17.3391 164.104 17.3816 161.713 17.3816H160.415V6.59584H167.954V8.42795H162.682ZM172.419 5.50982H170.135V20.0023H172.419V5.50982Z" fill="#1D2129"/>
</svg>
