<svg xmlns:xlink="http://www.w3.org/1999/xlink" viewBox="0 0 24 24" fill="none" xmlns="http://www.w3.org/2000/svg" width="24"  height="24" >
                          <path d="M9.4 12c0-.33.27-.6.6-.6h4c.33 0 .6.27.6.6s-.27.6-.6.6h-4c-.33 0-.6-.27-.6-.6z" fill="#212529"></path>
                          <path fill-rule="evenodd" clip-rule="evenodd" d="M7.575 2.4A2.4 2.4 0 0 0 5.87 3.038L2.293 6.15A2.4 2.4 0 0 0 1.4 8.11V19c0 1.436 1.164 2.6 2.6 2.6h16c1.436 0 2.6-1.164 2.6-2.6V8.02a2.4 2.4 0 0 0-.748-1.825L18.876 3.175A2.4 2.4 0 0 0 17.024 2.4H7.575zM6.656 3.944A1.2 1.2 0 0 1 7.575 3.6h9.449c.375 0 .734.15.997.417l2.84 2.883H3.258l3.398-2.956zM2.6 8.1v10.9c0 .773.627 1.4 1.4 1.4h16c.773 0 1.4-.627 1.4-1.4V8.1H2.6z" fill="#212529"></path>
                        </svg>